<?xml version="1.0" encoding="UTF-8"?>
<svg width="136px" height="39px" viewBox="0 0 136 39" version="1.1" xmlns="http://www.w3.org/2000/svg" xmlns:xlink="http://www.w3.org/1999/xlink">
    <!-- Generator: Sketch 48.2 (47327) - http://www.bohemiancoding.com/sketch -->
    <title>Combined Shape Copy 23</title>
    <desc>Created with Sketch.</desc>
    <defs></defs>
    <g id="Page-1" stroke="none" stroke-width="1" fill="none" fill-rule="evenodd">
        <path d="M122.011375,9.74853913 L107.72206,9.74853913 C100.252617,9.75043043 94.1810557,15.9431913 94.1810557,23.5613652 L94.1810557,24.2724957 C94.1810557,31.886887 100.252617,38.0828 107.72206,38.0828 L122.011375,38.0828 C129.473987,38.0828 135.543065,31.886887 135.543065,24.2724957 L135.543065,23.5613652 C135.543065,15.9431913 129.473987,9.75043043 122.011375,9.74853913 M122.011375,32.6900609 L107.72206,32.6900609 C103.201768,32.6824957 99.521695,28.9137565 99.5154849,24.2724957 L99.5154849,23.5613652 C99.521695,18.9144304 103.201768,15.1513652 107.72206,15.1400174 L122.011375,15.1400174 C126.528563,15.1513652 130.197458,18.9144304 130.209878,23.5613652 L130.209878,24.2724957 C130.197458,28.9137565 126.528563,32.6824957 122.011375,32.6900609 Z M20.535379,38.2224413 L20.5235799,38.2224413 L20.5223379,38.2224413 C17.7712877,38.2186587 15.1643105,36.6495065 13.3801644,33.9802457 L0.498045662,14.7418978 C0.163324201,14.2413326 0,13.67205 0,13.1078109 C0,12.188637 0.42973516,11.2808109 1.22524201,10.7203543 C1.71210959,10.3767674 2.2716347,10.2122239 2.82370776,10.2122239 C3.72168037,10.2122239 4.60661187,10.6510065 5.15247489,11.46805 L18.0376986,30.7063978 C18.8251324,31.8783761 19.5399087,32.4199196 20.5223379,32.4274848 L20.541589,32.4274848 C21.3650411,32.4274848 22.2269954,31.9269196 23.0107032,30.7063978 L35.8922009,11.46805 C36.4362009,10.6510065 37.3267215,10.2122239 38.220968,10.2122239 C38.7767671,10.2122239 39.3288402,10.3767674 39.8194338,10.7203543 C40.6149406,11.2808109 41.0409498,12.188637 41.0409498,13.1078109 C41.0409498,13.67205 40.8813516,14.2413326 40.5460091,14.7418978 L27.6645114,33.9840283 C25.6251324,36.9432891 23.389516,38.2262239 20.5987215,38.2186587 C20.5639452,38.2186587 20.5453151,38.2186587 20.535379,38.2224413 Z M73.8471306,38.2224413 L73.8322265,38.2224413 L73.8297425,38.2224413 C71.0786922,38.2186587 68.4741991,36.6558109 66.6850849,33.9802457 L53.8042082,14.7418978 C53.4694868,14.2413326 53.3092676,13.67205 53.3092676,13.1078109 C53.3092676,12.188637 53.7390027,11.2808109 54.5307836,10.7203543 C55.0219982,10.3780283 55.5790393,10.2122239 56.1329753,10.2122239 C57.0272219,10.2122239 57.9140164,10.6510065 58.4617425,11.46805 L71.3432402,30.7063978 C72.138126,31.8783761 72.8460712,32.4199196 73.8297425,32.4274848 L73.8508566,32.4274848 C74.6743087,32.4274848 75.536884,31.9269196 76.3199708,30.7063978 L89.1977425,11.46805 C89.7473315,10.6510065 90.632263,10.2122239 91.5308566,10.2122239 C92.0823087,10.2122239 92.6399708,10.3767674 93.1305644,10.7203543 C93.9242082,11.2808109 94.3502174,12.188637 94.3502174,13.1078109 C94.3502174,13.67205 94.1924822,14.2413326 93.8558977,14.7418978 L80.972537,33.9840283 C78.931295,36.9432891 76.6975416,38.2262239 73.901779,38.2186587 C73.8738338,38.2186587 73.8527196,38.2186587 73.8471306,38.2224413 Z M47.1749224,10.212413 C48.7423379,10.2143043 50.0197443,11.4852609 50.0197443,13.0651304 L50.0172603,35.3636087 C50.0172603,36.9434783 48.7423379,38.2144348 47.1749224,38.2226304 C45.6093699,38.2144348 44.3325845,36.9434783 44.3325845,35.3636087 L44.3325845,13.0651304 C44.3325845,11.4852609 45.6093699,10.2143043 47.1749224,10.2143043 L47.1749224,10.212413 Z M50.9667763,3.36463043 C51.1915799,3.59095652 51.3021187,3.89230435 51.3021187,4.18734783 C51.3021187,4.48554348 51.1915799,4.78247826 50.9667763,5.01069565 L47.9859543,8.03741304 C47.7611507,8.265 47.4680365,8.37721739 47.1749224,8.37721739 C46.8836712,8.37721739 46.5893151,8.265 46.3682374,8.03741304 L43.3843105,5.01069565 C43.1644749,4.78247826 43.049589,4.48302174 43.049589,4.18734783 C43.049589,3.89230435 43.1644749,3.59095652 43.3843105,3.36463043 L46.3682374,0.339804348 C46.583105,0.117891304 46.8687671,0.00630434783 47.1562922,0 L47.2059726,0 C47.4910137,0.00630434783 47.7723288,0.117891304 47.9859543,0.339804348 L50.9667763,3.36463043 Z" id="Combined-Shape-Copy-23" fill="#EEEEEE"></path>
    </g>
</svg>